HIERARCHY
ROOT ui
{
	 OFFSET 0 0 0
	 CHANNELS 3 XPosition YPosition Z Position
	 EndSite
	 {
	 OFFSET 0 -1 0
	 }
}
ROOT li
{
	 OFFSET 0 0 0
	 CHANNELS 3 XPosition YPosition Z Position
	 EndSite
	 {
	 OFFSET 0 -1 0
	 }
}
ROOT ul
{
	 OFFSET 0 0 0
	 CHANNELS 3 XPosition YPosition Z Position
	 EndSite
	 {
	 OFFSET 0 -1 0
	 }
}
ROOT ll
{
	 OFFSET 0 0 0
	 CHANNELS 3 XPosition YPosition Z Position
	 EndSite
	 {
	 OFFSET 0 -1 0
	 }
}
ROOT tt
{
	 OFFSET 0 0 0
	 CHANNELS 3 XPosition YPosition Z Position
	 EndSite
	 {
	 OFFSET 0 -1 0
	 }
}
ROOT tb
{
	 OFFSET 0 0 0
	 CHANNELS 3 XPosition YPosition Z Position
	 EndSite
	 {
	 OFFSET 0 -1 0
	 }
}
ROOT td
{
	 OFFSET 0 0 0
	 CHANNELS 3 XPosition YPosition Z Position
	 EndSite
	 {
	 OFFSET 0 -1 0
	 }
}
ROOT v
{
	 OFFSET 0 0 0
	 CHANNELS 3 XPosition YPosition Z Position
	 EndSite
	 {
	 OFFSET 0 -1 0
	 }
}
ROOT bn
{
	 OFFSET 0 0 0
	 CHANNELS 3 XPosition YPosition Z Position
	 EndSite
	 {
	 OFFSET 0 -1 0
	 }
}
MOTION
Frames: 29
Frame Time: 0.002
-0.007371510982513428	0.002745459079742432	0		0.5428992309570313	-2.504130615234375	0		-0.9159537963867187	0.2553760986328125	0		-0.4928992919921875	-2.8427919921875	0		1.687513427734375	-0.5218211059570312	0		3.172600830078125	-0.09338501739501953	0		4.3767890625	-0.016085351943969727	0		6.01145703125	0.5972931518554687	0		-0.16987660217285155	5.94957275390625	0		
-0.0077438998222351075	0.002606698989868164	0		0.5445628051757813	-2.502295654296875	0		-0.96823876953125	0.2619550476074219	0		-0.5309671630859375	-2.8214072265625	0		1.684087646484375	-0.5259121704101563	0		3.1433564453125	-0.08411173248291015	0		4.3764169921875	-0.016209444046020507	0		6.01108251953125	0.5971744995117187	0		-0.17222708129882813	5.9524609375	0		
-0.008135098457336426	0.0025082569122314453	0		0.531231201171875	-2.49821337890625	0		-0.9006923217773437	0.2569127197265625	0		-0.5001639709472656	-2.8079375	0		1.67944775390625	-0.5439514770507813	0		3.149701171875	-0.10330186462402344	0		4.37984521484375	-0.02935714340209961	0		6.006580078125	0.58913916015625	0		-0.17361105346679687	5.9533759765625	0		
-0.037574817657470706	-1.473889946937561E-4	0		0.5308277587890625	-2.498272216796875	0		-0.9740859375	0.25786801147460936	0		-0.5413280029296875	-2.79042822265625	0		1.66989453125	-0.554885498046875	0		3.1343154296875	-0.10215531158447265	0		4.3674453125	-0.02925336456298828	0		6.010068359375	0.5810200805664063	0		-0.23738821411132813	5.9261943359375	0		
-0.011988771438598634	-0.0015263810157775878	0		0.5393106079101563	-2.50641650390625	0		-0.9055448608398438	0.25289561462402343	0		-0.5305687255859375	-2.7785986328125	0		1.6664400634765626	-0.5588671264648437	0		3.165734130859375	-0.11562617492675781	0		4.37193603515625	-0.03735390090942383	0		6.0057841796875	0.589037841796875	0		-0.20846507263183595	5.9477724609375	0		
-0.00930972671508789	0.002452308893203735	0		0.49109344482421874	-2.4937333984375	0		-0.9748576049804687	0.2578779296875	0		-0.5775097045898437	-2.74592626953125	0		1.663019775390625	-0.5618126220703125	0		3.12862451171875	-0.09610914611816407	0		4.37743408203125	-0.04643681716918945	0		6.01341015625	0.5889183959960937	0		-0.20881246948242188	5.9477939453125	0		
0.06833531188964843	4.285329878330231E-4	0		0.5617518920898438	-2.4936630859375	0		-0.91119580078125	0.2570542907714844	0		-0.5317393188476562	-2.737503173828125	0		1.6565723876953125	-0.569679443359375	0		3.153093505859375	-0.11041470336914062	0		4.3771005859375	-0.046404136657714846	0		6.013080078125	0.588941162109375	0		-0.1750300750732422	5.9533818359375	0		
-0.009914932250976562	0.0026082699298858644	0		0.5334666137695312	-2.49318115234375	0		-0.9584334716796875	0.2598096923828125	0		-0.52491845703125	-2.7295009765625	0		1.6640877685546875	-0.5847032470703125	0		3.16781982421875	-0.11054698944091797	0		4.37682861328125	-0.04633605575561523	0		6.0118125	0.589012451171875	0		-0.19041415405273437	5.94268896484375	0		
0.06381193923950196	-0.0032864620685577393	0		0.5233803100585938	-2.4839130859375	0		-0.9307422485351563	0.2515605621337891	0		-0.57269677734375	-2.697700439453125	0		1.6577769775390625	-0.5924964599609375	0		3.145485595703125	-0.12012714385986328	0		4.3766318359375	-0.04623059463500977	0		6.0165078125	0.581038818359375	0		-0.19155902099609376	5.9438369140625	0		
-0.03926498794555664	3.1344598531723024E-4	0		0.48122854614257815	-2.48516357421875	0		-1.0038485107421875	0.25274891662597654	0		-0.5487587890625	-2.692863037109375	0		1.648507080078125	-0.6032108154296875	0		3.14230126953125	-0.12493350219726562	0		4.3765166015625	-0.04608577346801758	0		6.016396484375	0.5811748046875	0		-0.2436644744873047	5.9427294921875	0		
0.0677212677001953	0.0010277810096740723	0		0.5361414794921875	-2.488727294921875	0		-0.9578971557617187	0.25131529235839845	0		-0.6153619384765625	-2.66072998046875	0		1.6484737548828126	-0.6030142211914062	0		3.16818359375	-0.13110324096679687	0		4.387248046875	-0.06305022811889649	0		6.0245888671875	0.5972430419921875	0		-0.17355616760253906	5.95095849609375	0		
-0.0362047233581543	0.0037093980312347414	0		0.5303851928710938	-2.47441015625	0		-0.9678320922851562	0.25269024658203126	0		-0.552971923828125	-2.63635888671875	0		1.661410888671875	-0.6109599609375	0		3.154360107421875	-0.12167607879638671	0		4.3872978515625	-0.06281768798828125	0		6.0205283203125	0.5895309448242188	0		-0.20855453491210937	5.94768115234375	0		
0.06384152603149414	-0.0024137890338897707	0		0.5274498291015625	-2.479099365234375	0		-0.9347662963867187	0.24849537658691406	0		-0.5806818237304687	-2.62470556640625	0		1.683397216796875	-0.6209923095703125	0		3.142167236328125	-0.1442293701171875	0		4.3945478515625	-0.053634052276611326	0		6.01165283203125	0.5899434814453125	0		-0.05622768783569336	5.96283251953125	0		
-0.038929313659667966	0.0013145530223846436	0		0.527661865234375	-2.47879833984375	0		-0.9345769653320313	0.24878431701660156	0		-0.5482771606445312	-2.61085986328125	0		1.646875244140625	-0.6001693725585937	0		3.16141357421875	-0.14017091369628906	0		4.3914345703125	-0.07525695037841797	0		6.01183935546875	0.5902902221679688	0		-0.2035302734375	5.93217431640625	0		
-0.012699982643127442	2.779490053653717E-4	0		0.52794140625	-2.47846630859375	0		-0.9653871459960938	0.24552708435058593	0		-0.6186141357421875	-2.5825595703125	0		1.638977294921875	-0.6107100219726562	0		3.181562255859375	-0.14708001708984375	0		4.39577783203125	-0.06792852020263672	0		6.01696533203125	0.5826283569335937	0		-0.2071567840576172	5.94755078125	0		
-0.012410316467285156	6.286810040473938E-4	0		0.5412217407226563	-2.48228515625	0		-0.9291195068359375	0.24436064147949219	0		-0.5681135864257812	-2.57091455078125	0		1.6362373046875	-0.613285888671875	0		3.17288330078125	-0.14454368591308595	0		4.4060400390625	-0.06963201141357422	0		6.0213544921875	0.5910380249023437	0		-0.20698072814941407	5.9478974609375	0		
0.06894896697998047	0.0028823440074920654	0		0.5337615966796875	-2.470786865234375	0		-0.9368961181640625	0.23782424926757811	0		-0.6112498168945313	-2.53594775390625	0		1.6464110107421874	-0.6250075073242187	0		3.191989013671875	-0.16035151672363282	0		4.40636767578125	-0.06914797973632812	0		6.02066552734375	0.5915758056640625	0		-0.055567501068115234	5.96417626953125	0		
-0.011733049392700196	0.001400262951850891	0		0.5321605224609375	-2.472345947265625	0		-0.9407168579101562	0.22624940490722656	0		-0.5657152709960938	-2.52819140625	0		1.6606697998046875	-0.6327532958984375	0		3.225397705078125	-0.15631410217285155	0		4.4204990234375	-0.08480962371826171	0		6.02099951171875	0.5921547241210937	0		-0.1877008514404297	5.943396484375	0		
-0.011369319915771484	0.001816094994544983	0		0.53156982421875	-2.47489697265625	0		-0.9403609619140625	0.2266326446533203	0		-0.6009563598632812	-2.50530126953125	0		1.6908876953125	-0.6446907958984375	0		3.192715087890625	-0.15932981872558594	0		4.42086572265625	-0.08423831176757812	0		6.02134228515625	0.5927821655273438	0		-0.18853170776367187	5.94481982421875	0		
-0.011009968757629395	0.00224785590171814	0		0.5330668334960937	-2.4714580078125	0		-0.9332033081054687	0.21293338012695312	0		-0.5862946166992188	-2.490086181640625	0		1.683121826171875	-0.655081787109375	0		3.218995849609375	-0.1651296844482422	0		4.42532421875	-0.07668938446044922	0		6.0136796875	0.5935589599609375	0		-0.22149702453613282	5.93869873046875	0		
-0.01066977882385254	0.0026918649673461914	0		0.5106085815429687	-2.463677001953125	0		-0.9539384765625	0.20862678527832032	0		-0.5675916137695313	-2.470914306640625	0		1.6834896240234376	-0.6545668334960938	0		3.21627490234375	-0.1695089111328125	0		4.4305439453125	-0.08512725830078124	0		6.0309931640625	0.5940223999023437	0		-0.20331121826171875	5.94588671875	0		
0.002555924892425537	-0.0030329070091247557	0		0.54000927734375	-2.46459765625	0		-0.9206963500976563	0.20458746337890624	0		-0.5658876953125	-2.44950244140625	0		1.68077294921875	-0.6579990844726562	0		3.217714111328125	-0.15992967224121094	0		4.43085693359375	-0.08448025512695312	0		6.0273857421875	0.6027935180664062	0		-0.20522209167480468	5.949357421875	0		
-0.010093902587890625	0.003599708080291748	0		0.5294840698242187	-2.456968017578125	0		-0.9236013793945312	0.19304400634765626	0		-0.5781549682617187	-2.422897216796875	0		1.7078497314453125	-0.673832763671875	0		3.2007587890625	-0.17609527587890625	0		4.43595068359375	-0.09689068603515626	0		6.022517578125	0.5955907592773437	0		-0.18630703735351561	5.94354638671875	0		
-0.00987752628326416	0.0040544338226318356	0		0.5277726440429688	-2.459461181640625	0		-0.9165841064453125	0.17936326599121094	0		-0.5785697021484375	-2.403456787109375	0		1.7020028076171876	-0.6802173461914063	0		3.206887939453125	-0.18257415771484375	0		4.44025244140625	-0.09028706359863281	0		6.0307060546875	0.59621337890625	0		-0.20052418518066406	5.93218408203125	0		
-0.0038818581104278563	-0.007576819896697998	0		0.5120048217773437	-2.461771484375	0		-0.9115017700195313	0.17470333862304688	0		-0.5671534423828125	-2.392183837890625	0		1.6991522216796875	-0.6826494140625	0		3.246848388671875	-0.1975171813964844	0		4.44221240234375	-0.10466015625	0		6.022837890625	0.597046875	0		-0.2185816650390625	5.93686669921875	0		
-0.009624237060546876	0.004940717220306396	0		0.541195068359375	-2.46270068359375	0		-0.9306013793945312	0.16135728454589843	0		-0.6226354370117188	-2.368019287109375	0		1.6972244873046876	-0.6861072998046875	0		3.23123681640625	-0.17571890258789064	0		4.449486328125	-0.09111685943603516	0		6.02801318359375	0.6056890258789063	0		-0.18467709350585937	5.94283642578125	0		
-0.00959623908996582	0.0053619761466979984	0		0.5334800415039063	-2.451148681640625	0		-0.896744384765625	0.14928273010253906	0		-0.5622399291992187	-2.34843212890625	0		1.729172607421875	-0.6940397338867188	0		3.25005615234375	-0.19140858459472657	0		4.462517578125	-0.09067382049560548	0		6.0309072265625	0.5983364868164063	0		-0.23412081909179688	5.9279091796875	0		
2.4190300703048705E-4	-0.0033715488910675048	0		0.539369140625	-2.463805419921875	0		-0.8940187377929687	0.13260598754882813	0		-0.55406103515625	-2.3391640625	0		1.68508544921875	-0.6989773559570313	0		3.254090576171875	-0.1859249725341797	0		4.45128125	-0.10493634796142579	0		6.03084130859375	0.5989918823242187	0		-0.20034843444824219	5.93284375	0		
-0.01378536605834961	0.0031867420673370363	0		0.5304806518554688	-2.454292236328125	0		-0.8244324951171875	0.11001016235351563	0		-0.5558484497070313	-2.3217890625	0		1.7148421630859374	-0.7109364624023438	0		3.246856689453125	-0.1953274230957031	0		4.458283203125	-0.09647888946533204	0		6.0268291015625	0.60865966796875	0		-0.20069635009765624	5.93320751953125	0		
